<svg xmlns="http://www.w3.org/2000/svg" xmlns:xlink="http://www.w3.org/1999/xlink" width="500" zoomAndPan="magnify" viewBox="0 0 375 374.999991" height="500" preserveAspectRatio="xMidYMid meet" version="1.0"><defs><g/><clipPath id="c3209090bc"><path d="M 37.5 37.5 L 337.5 37.5 L 337.5 337.5 L 37.5 337.5 Z M 37.5 37.5 " clip-rule="nonzero"/></clipPath><clipPath id="6a29f72356"><path d="M 187.5 37.5 C 104.65625 37.5 37.5 104.65625 37.5 187.5 C 37.5 270.34375 104.65625 337.5 187.5 337.5 C 270.34375 337.5 337.5 270.34375 337.5 187.5 C 337.5 104.65625 270.34375 37.5 187.5 37.5 Z M 187.5 37.5 " clip-rule="nonzero"/></clipPath><clipPath id="dfac45a0be"><path d="M 0.5 0.5 L 300.5 0.5 L 300.5 300.5 L 0.5 300.5 Z M 0.5 0.5 " clip-rule="nonzero"/></clipPath><clipPath id="9abae3c2b4"><path d="M 150.5 0.5 C 67.65625 0.5 0.5 67.65625 0.5 150.5 C 0.5 233.34375 67.65625 300.5 150.5 300.5 C 233.34375 300.5 300.5 233.34375 300.5 150.5 C 300.5 67.65625 233.34375 0.5 150.5 0.5 Z M 150.5 0.5 " clip-rule="nonzero"/></clipPath><clipPath id="43e2486fc9"><rect x="0" width="301" y="0" height="301"/></clipPath><clipPath id="a5beb81bbe"><rect x="0" width="184" y="0" height="317"/></clipPath></defs><g clip-path="url(#c3209090bc)"><g clip-path="url(#6a29f72356)"><g transform="matrix(1, 0, 0, 1, 37, 37)"><g clip-path="url(#43e2486fc9)"><g clip-path="url(#dfac45a0be)"><g clip-path="url(#9abae3c2b4)"><path fill="#000000" d="M 0.5 0.5 L 300.5 0.5 L 300.5 300.5 L 0.5 300.5 Z M 0.5 0.5 " fill-opacity="1" fill-rule="nonzero"/></g></g></g></g></g></g><g transform="matrix(1, 0, 0, 1, 94, 13)"><g clip-path="url(#a5beb81bbe)"><g fill="#ffffff" fill-opacity="1"><g transform="translate(0.924792, 247.207941)"><g><path d="M 60.40625 29.265625 C 49.71875 29.265625 41.507812 26.285156 35.78125 20.328125 C 30.050781 14.367188 27.1875 5.96875 27.1875 -4.875 L 27.1875 -48.328125 C 27.1875 -56.992188 25.597656 -63.1875 22.421875 -66.90625 C 19.242188 -70.625 13.472656 -72.5625 5.109375 -72.71875 L 5.109375 -74.796875 C 13.003906 -75.109375 18.65625 -77.046875 22.0625 -80.609375 C 25.476562 -84.171875 27.1875 -90.445312 27.1875 -99.4375 L 27.1875 -142.875 C 27.1875 -153.71875 30.050781 -162.039062 35.78125 -167.84375 C 41.507812 -173.65625 49.71875 -176.5625 60.40625 -176.5625 L 78.75 -176.5625 L 78.75 -174.234375 L 71.09375 -174.234375 C 66.132812 -174.234375 62.6875 -172.453125 60.75 -168.890625 C 58.8125 -165.328125 57.84375 -158.976562 57.84375 -149.84375 L 57.84375 -105.9375 C 57.84375 -98.65625 56.679688 -92.84375 54.359375 -88.5 C 52.035156 -84.164062 48.125 -80.875 42.625 -78.625 C 37.125 -76.382812 29.421875 -74.957031 19.515625 -74.34375 L 19.515625 -73.875 C 29.273438 -73.5625 36.941406 -72.359375 42.515625 -70.265625 C 48.085938 -68.179688 52.035156 -64.851562 54.359375 -60.28125 C 56.679688 -55.71875 57.84375 -49.5625 57.84375 -41.8125 L 57.84375 2.5625 C 57.84375 11.695312 58.8125 18.046875 60.75 21.609375 C 62.6875 25.171875 66.132812 26.953125 71.09375 26.953125 L 78.75 26.953125 L 78.75 29.265625 Z M 60.40625 29.265625 "/></g></g></g><g fill="#ffffff" fill-opacity="1"><g transform="translate(73.1719, 247.207941)"><g/></g></g><g fill="#ffffff" fill-opacity="1"><g transform="translate(102.209917, 247.207941)"><g><path d="M 5.109375 29.265625 L 5.109375 26.953125 L 12.78125 26.953125 C 17.582031 26.953125 20.988281 25.171875 23 21.609375 C 25.007812 18.046875 26.015625 11.695312 26.015625 2.5625 L 26.015625 -41.8125 C 26.015625 -49.5625 27.175781 -55.71875 29.5 -60.28125 C 31.820312 -64.851562 35.769531 -68.179688 41.34375 -70.265625 C 46.925781 -72.359375 54.519531 -73.5625 64.125 -73.875 L 64.125 -74.34375 C 54.363281 -74.957031 46.734375 -76.382812 41.234375 -78.625 C 35.734375 -80.875 31.820312 -84.164062 29.5 -88.5 C 27.175781 -92.84375 26.015625 -98.65625 26.015625 -105.9375 L 26.015625 -149.84375 C 26.015625 -158.976562 25.046875 -165.328125 23.109375 -168.890625 C 21.179688 -172.453125 17.738281 -174.234375 12.78125 -174.234375 L 5.109375 -174.234375 L 5.109375 -176.5625 L 23.46875 -176.5625 C 34.15625 -176.5625 42.320312 -173.65625 47.96875 -167.84375 C 53.625 -162.039062 56.453125 -153.71875 56.453125 -142.875 L 56.453125 -99.4375 C 56.453125 -90.445312 58.191406 -84.171875 61.671875 -80.609375 C 65.160156 -77.046875 70.851562 -75.109375 78.75 -74.796875 L 78.75 -72.71875 C 70.382812 -72.5625 64.578125 -70.625 61.328125 -66.90625 C 58.078125 -63.1875 56.453125 -56.992188 56.453125 -48.328125 L 56.453125 -4.875 C 56.453125 5.96875 53.625 14.367188 47.96875 20.328125 C 42.320312 26.285156 34.078125 29.265625 23.234375 29.265625 Z M 5.109375 29.265625 "/></g></g></g></g></g></svg>